<svg width="223" height="198" viewBox="0 0 223 198" fill="none" xmlns="http://www.w3.org/2000/svg">
<path d="M-4.29333 31.0051C-2.1626 35.6217 0.899633 39.9076 3.27678 44.3789C11.8592 60.5221 17.2335 79.4529 28.2582 94.1524C44.5504 115.875 83.6639 117.575 107.871 112.825C135.739 107.357 153.846 85.4464 148.812 56.8696C144.064 29.9102 117.306 -1.01085 86.9265 4.25733C54.6816 9.84894 38.6939 51.6915 42.8937 80.7155C47.3664 111.625 66.375 154.617 102.445 154.903C123.419 155.068 143.38 148.524 163.511 143.8C174.509 141.219 181.181 143.89 189.88 150.991C199.036 158.465 209.1 167.824 213.474 179.127C217.828 190.381 217.847 203.175 219.404 214.959" stroke="#AADED3" stroke-width="7" stroke-linecap="round"/>
</svg>
