<svg width="108" height="108" viewBox="0 0 108 108" fill="none" xmlns="http://www.w3.org/2000/svg">
<circle cx="54.0741" cy="54.1671" r="52.3939" stroke="#194138" stroke-width="2"/>
<path d="M106.468 54.1673C106.468 63.0895 100.783 71.3101 91.2925 77.3496C81.8137 83.3816 68.6577 87.1452 54.0742 87.1452C39.4907 87.1452 26.3347 83.3816 16.8559 77.3496C7.36518 71.3101 1.6803 63.0895 1.6803 54.1673C1.6803 45.245 7.36518 37.0244 16.8559 30.9849C26.3347 24.9529 39.4907 21.1893 54.0742 21.1893C68.6577 21.1893 81.8137 24.9529 91.2925 30.9849C100.783 37.0244 106.468 45.245 106.468 54.1673Z" stroke="#194138" stroke-width="2"/>
<path d="M106.468 54.2483C106.468 55.5195 105.413 57.0168 102.763 58.5832C100.18 60.11 96.3757 61.5197 91.5868 62.7169C82.0246 65.1075 68.7614 66.5967 54.0742 66.5967C39.387 66.5967 26.1238 65.1075 16.5615 62.7169C11.7727 61.5197 7.96825 60.11 5.38508 58.5832C2.73498 57.0168 1.6803 55.5195 1.6803 54.2483C1.6803 52.977 2.73498 51.4797 5.38508 49.9133C7.96825 48.3865 11.7727 46.9768 16.5615 45.7796C26.1238 43.389 39.387 41.8998 54.0742 41.8998C68.7614 41.8998 82.0246 43.389 91.5868 45.7796C96.3757 46.9768 100.18 48.3865 102.763 49.9133C105.413 51.4797 106.468 52.977 106.468 54.2483Z" stroke="#194138" stroke-width="2"/>
<path d="M54.074 106.561C45.1517 106.561 36.9312 100.876 30.8916 91.3854C24.8596 81.9066 21.0961 68.7506 21.0961 54.1671C21.0961 39.5836 24.8597 26.4276 30.8916 16.9488C36.9312 7.45807 45.1517 1.77319 54.074 1.77319C62.9963 1.77319 71.2168 7.45807 77.2564 16.9488C83.2884 26.4276 87.0519 39.5836 87.0519 54.1671C87.0519 68.7506 83.2884 81.9066 77.2564 91.3854C71.2168 100.876 62.9963 106.561 54.074 106.561Z" stroke="#194138" stroke-width="2"/>
<path d="M53.993 106.561C52.7218 106.561 51.2244 105.506 49.6581 102.856C48.1312 100.273 46.7216 96.4686 45.5244 91.6797C43.1338 82.1174 41.6445 68.8543 41.6445 54.1671C41.6445 39.4799 43.1338 26.2167 45.5244 16.6544C46.7216 11.8656 48.1312 8.06114 49.6581 5.47798C51.2244 2.82787 52.7218 1.77319 53.993 1.77319C55.2642 1.77319 56.7616 2.82787 58.328 5.47798C59.8548 8.06114 61.2645 11.8656 62.4617 16.6544C64.8522 26.2167 66.3415 39.4799 66.3415 54.1671C66.3415 68.8543 64.8522 82.1174 62.4617 91.6797C61.2645 96.4686 59.8548 100.273 58.328 102.856C56.7616 105.506 55.2642 106.561 53.993 106.561Z" stroke="#194138" stroke-width="2"/>
</svg>
