<svg width="129" height="42" viewBox="0 0 129 42" fill="none" xmlns="http://www.w3.org/2000/svg">
<path d="M9.70866 5.5366C7.22132 6.63045 4.48372 9.72097 3.61929 13.6002C2.52486 18.5152 7.07915 20.5937 7.45271 19.9121C7.89229 19.1113 6.63665 18.8405 6.37793 16.2904C6.04383 12.9967 7.50215 9.31616 9.33756 7.70141C9.67872 7.40155 9.66245 7.8191 9.66245 8.59133L9.58982 24.9596C9.58982 28.4613 9.4521 29.5672 9.20475 30.6596C8.95402 31.7668 8.55113 32.5152 8.85652 32.8031C9.19768 33.1256 10.6545 32.3587 11.4974 31.1229C12.5086 29.6409 12.8624 27.861 12.9261 25.9281C13.0029 23.598 12.9998 19.9007 13.0029 17.7915L12.9721 6.78845C12.9568 5.95334 10.7507 5.07713 9.70974 5.53499L9.70866 5.5366ZM98.0912 21.9231C98.0109 23.7436 97.6272 25.1663 97.1509 26.17C96.2289 28.113 94.3155 28.7163 93.5031 25.9234C93.0605 24.4009 93.0398 21.8582 93.358 19.7335C93.6805 17.5692 94.5867 15.9344 96.0849 16.0819C97.5624 16.2277 98.2541 18.2268 98.0914 21.9233L98.0912 21.9231ZM73.1803 33.2178C73.1604 36.2425 72.707 38.8945 71.7348 39.6664C70.356 40.7587 68.5025 39.9394 68.8863 37.7322C69.2259 35.779 70.8316 33.7845 73.1843 31.3473L73.1805 33.2194L73.1803 33.2178ZM72.8037 21.906C72.7193 23.564 72.3101 25.2297 71.8634 26.1709C70.9416 28.1138 69.0144 28.7213 68.2156 25.9242C67.6695 24.013 67.8003 21.5394 68.0705 19.9809C68.4212 17.9588 69.2712 16.0827 70.7974 16.0827C72.2814 16.0827 73.013 17.7921 72.8039 21.9062L72.8037 21.906ZM58.3736 21.8807C58.283 23.6367 57.9569 25.1047 57.4333 26.1707C56.486 28.1005 54.612 28.7123 53.7855 25.924C53.1898 23.9133 53.3925 21.1719 53.6405 19.6909C54.0083 17.4932 54.9293 15.9351 56.3673 16.0829C57.8444 16.2344 58.5623 18.2276 58.3738 21.881L58.3736 21.8807ZM124.504 23.9317C124.143 23.9317 123.978 24.3225 123.842 24.9803C123.369 27.2674 122.872 27.7854 122.23 27.7854C121.514 27.7854 120.87 26.6529 120.705 24.3859C120.575 22.6033 120.596 19.3214 120.762 16.0569C120.796 15.3863 120.62 14.7226 118.907 14.0691C118.169 13.788 117.098 13.3743 116.564 14.7266C115.056 18.5474 114.467 21.581 114.328 22.8132C114.32 22.877 114.246 22.8899 114.233 22.741C114.145 21.754 113.947 19.9605 113.922 16.192C113.918 15.4569 113.769 14.8311 112.996 14.3187C112.495 13.9863 110.972 13.3982 110.424 14.0978C109.949 14.6702 109.399 16.2098 108.827 18.0347L108.039 20.5215L108.05 15.001C108.053 14.4282 107.679 14.2375 107.566 14.203C107.058 14.0482 106.058 13.7896 105.631 13.7896C105.107 13.7896 104.979 14.0972 104.979 14.5452L104.896 23.4584L104.898 23.9727C104.608 25.6474 103.668 27.9209 102.646 27.9209C101.622 27.9209 101.141 26.9705 101.141 22.6265C101.141 20.0925 101.214 18.9906 101.249 17.158L101.308 15.1077C101.3 14.5434 100.371 14.2592 99.9386 14.1541C99.5041 14.0482 99.1268 14.0071 98.832 14.0246C98.4149 14.0493 98.1196 14.3368 98.1196 14.7319L98.1219 15.3468C97.5845 14.4601 96.7205 13.8433 96.1455 13.6645C94.5969 13.1816 92.9811 13.6097 91.762 15.4003C90.7932 16.8232 90.2093 18.4349 89.9809 20.7504C89.813 22.4432 89.8678 24.1598 90.1664 25.6116C89.8056 27.2496 89.1357 27.9209 88.4022 27.9209C87.3373 27.9209 86.5653 26.0959 86.655 22.9393C86.7141 20.8631 87.1097 19.4061 87.5424 17.2983C87.7267 16.3997 87.577 15.9293 87.2013 15.4785C86.8566 15.065 86.1222 14.8538 85.0664 15.1137C84.3144 15.2991 83.2393 15.4982 82.2556 15.6512C82.2556 15.6512 82.315 15.4026 82.3637 14.9641C82.6195 12.6651 80.2402 12.8515 79.481 13.5857C79.028 14.0242 78.7194 14.5412 78.6023 15.4709C78.4165 16.9464 79.5627 17.6422 79.5627 17.6422C79.1865 19.4478 78.265 21.8103 77.3133 23.5169C76.8036 24.4313 76.4136 25.1091 75.9104 25.8294L75.9063 25.0261L75.9642 17.1587L76.023 15.1299C76.0173 14.7172 75.7877 14.5615 75.3105 14.3642C74.8883 14.1897 74.3893 14.0688 73.8719 14.0267C73.2186 13.9732 72.8247 14.3371 72.8352 14.7674C72.8372 14.8486 72.8372 15.3474 72.8372 15.3474C72.2998 14.4607 71.4357 13.8439 70.8608 13.6651C69.3122 13.1825 67.6964 13.6103 66.4773 15.4009C65.5087 16.8238 64.8743 18.8207 64.6962 20.7333C64.5273 22.5161 64.5596 24.031 64.7879 25.3071C64.5416 26.585 63.8336 27.9213 63.0332 27.9213C62.0099 27.9213 61.4275 26.971 61.4275 22.627C61.4275 20.093 61.5 18.9911 61.5356 17.1585L61.5939 15.1082C61.5863 14.5439 60.6574 14.2597 60.225 14.1544C59.7727 14.0448 59.3805 14.0042 59.0822 14.0274C58.6865 14.0583 58.4082 14.4304 58.4082 14.7077V15.3471C57.8708 14.4604 57.0068 13.8436 56.4318 13.6648C54.8832 13.1821 53.2763 13.6169 52.0482 15.4006C51.2475 16.5638 50.5993 17.8532 50.2672 20.7079C50.1708 21.5328 50.1282 22.3052 50.1336 23.0273C49.8142 25.0776 48.4041 27.4408 47.2504 27.4408C46.5753 27.4408 45.9325 26.0659 45.9325 23.136C45.9325 19.2329 46.1625 13.6763 46.2015 13.1405L47.9411 13.111C48.6681 13.1026 49.3266 13.1207 50.2948 13.0686C50.7805 13.0428 51.2483 11.2124 50.7472 10.9857C50.5199 10.8832 48.9142 10.7934 48.2776 10.7794C47.7424 10.7665 46.2524 10.6509 46.2524 10.6509L46.4172 6.5729C46.4436 6.24821 46.0435 6.08119 45.8138 5.97962C45.2558 5.73183 44.7567 5.61318 44.1648 5.48517C43.3473 5.30816 42.9764 5.4813 42.9039 6.20581C42.7964 7.30531 42.7381 10.5258 42.7381 10.5258C42.1382 10.5258 40.0889 10.4026 39.4889 10.4026C38.9315 10.4026 38.3296 12.9203 39.1004 12.9514L42.5575 13.0514L42.5138 20.9811C41.9498 24.0673 39.9635 25.7344 39.9635 25.7344C40.39 23.6928 39.5187 22.1596 37.949 20.8617C37.3708 20.3833 36.2294 19.478 34.9519 18.4858C34.9519 18.4858 35.6917 17.7204 36.3491 16.1804C36.8139 15.0895 36.834 13.8412 35.6932 13.5658C33.8081 13.1107 32.2539 14.5642 31.7902 16.1163C31.431 17.3185 31.6226 18.2105 32.3261 19.1375C32.3775 19.2052 32.4331 19.2745 32.4907 19.3438C32.0651 20.205 31.4804 21.3645 30.9855 22.2635C29.6114 24.7599 28.5731 26.7345 27.7889 26.7345C27.1616 26.7345 27.1701 24.7297 27.1701 22.8527C27.1701 21.2346 27.2837 18.8018 27.3748 16.2831C27.4049 15.4501 27.0081 14.9757 26.343 14.5457C25.9392 14.2845 25.0766 13.7712 24.5773 13.7712C23.8295 13.7712 21.6731 13.8779 19.6353 20.0674C19.3784 20.8476 18.8737 22.2689 18.8737 22.2689L18.9172 14.8261C18.9172 14.6516 18.8288 14.4827 18.6259 14.3674C18.2826 14.1717 17.3669 13.7712 16.5501 13.7712C16.1616 13.7712 15.9675 13.961 15.9675 14.3392L15.8965 25.9838C15.8965 26.8686 15.9184 27.9023 16.0018 28.3521C16.0852 28.8019 16.2192 29.1717 16.3856 29.3903C16.5521 29.609 16.7443 29.7753 17.0615 29.844C17.3568 29.9078 18.9731 30.1258 19.0572 29.4772C19.1579 28.7002 19.1616 27.8591 20.0107 24.7236C21.3321 19.842 23.0549 17.46 23.8648 16.6141C24.0064 16.4663 24.1681 16.4574 24.1604 16.6995L23.9224 22.7161C23.7029 28.7964 24.7565 29.9235 26.2619 29.9235C27.4135 29.9235 29.0371 28.7219 30.776 25.6803L33.6714 20.5866L35.3823 22.2407C36.7569 23.6106 37.2082 24.9124 36.9088 26.147C36.6797 27.0911 35.8171 28.0655 34.2822 27.1183C33.8348 26.8426 33.6438 26.6294 33.1939 26.3182C32.9522 26.1512 32.5831 26.1012 32.3617 26.2763C31.787 26.7312 31.4583 27.31 31.2705 28.0266C31.0878 28.7239 31.7529 29.0923 32.4423 29.4131C33.0359 29.6904 34.3117 29.9419 35.1253 29.9706C38.2954 30.0834 40.8348 28.3632 42.6026 23.9306C42.9189 27.7588 44.2659 29.9253 46.6057 29.9253C48.1703 29.9253 49.7386 27.802 50.4243 25.7133C50.6211 26.5645 50.9125 27.3052 51.289 27.9312C53.092 30.9308 56.5898 30.2849 58.3467 27.738C58.89 26.951 58.9727 26.6682 58.9727 26.6682C59.2291 29.0732 61.0736 29.9135 62.1295 29.9135C63.3124 29.9135 64.5336 29.3263 65.3896 27.3029C65.4899 27.5225 65.5993 27.7322 65.7189 27.931C67.522 30.9306 71.0197 30.2848 72.7767 27.7379C72.8509 27.6308 72.9235 27.5224 72.9943 27.4127L73.0458 28.9926L71.4283 30.5503C68.7203 33.1588 66.6614 35.138 66.5098 37.4428C66.3154 40.3818 68.5852 41.4737 70.3026 41.6167C72.1263 41.7687 73.6881 40.7106 74.6477 39.2307C75.4922 37.9277 76.0446 35.1232 76.0041 32.3535L75.9404 28.3224C76.8923 27.1617 77.9645 25.6951 78.9519 23.9781C80.0279 22.1071 81.1813 19.5944 81.7715 17.6388C81.7715 17.6388 82.7733 17.6478 83.8427 17.5743C84.1848 17.5509 84.2829 17.6243 84.2198 17.8874C84.1435 18.2055 82.869 23.3671 84.0321 26.8059C84.8283 29.1596 86.623 29.9174 87.6872 29.9174C88.9329 29.9174 90.1245 28.9296 90.7631 27.4628C90.8398 27.6263 90.9204 27.7846 91.0083 27.9307C92.8113 30.9303 96.2968 30.2807 98.066 27.7376C98.4652 27.1636 98.692 26.6677 98.692 26.6677C99.0717 29.1569 100.915 29.9259 101.971 29.9259C103.071 29.9259 104.115 29.4524 104.962 27.3481C104.997 28.2746 105.053 29.0321 105.141 29.2709C105.195 29.4169 105.507 29.6002 105.735 29.6889C106.741 30.0807 107.767 29.8953 108.145 29.8147C108.408 29.7587 108.614 29.5374 108.641 28.9651C108.715 27.4628 108.67 24.9388 109.102 23.0629C109.83 19.9148 110.509 18.694 110.831 18.0894C111.011 17.7508 111.215 17.6947 111.222 18.0533C111.238 18.7788 111.272 20.9084 111.554 23.7705C111.761 25.8752 112.038 27.1193 112.25 27.513C112.857 28.6389 113.607 28.6923 114.216 28.6923C114.604 28.6923 115.416 28.5794 115.343 27.8631C115.308 27.5139 115.37 25.3556 116.088 22.2541C116.556 20.2287 117.338 18.3988 117.62 17.7297C117.724 17.4831 117.772 17.6775 117.77 17.7152C117.711 19.1101 117.578 23.6722 118.119 26.1673C118.852 29.5475 120.975 29.9257 121.714 29.9257C123.293 29.9257 124.584 28.665 125.019 25.3472C125.124 24.5487 124.968 23.9322 124.504 23.9322" fill="#194138"/>
</svg>
