<svg width="106" height="48" viewBox="0 0 106 48" fill="none" xmlns="http://www.w3.org/2000/svg">
<path d="M57.3786 8.63125L50.4238 10.1513V4.40903L57.3786 2.91718V8.63125Z" fill="#194138"/>
<path fill-rule="evenodd" clip-rule="evenodd" d="M71.8423 11.812C69.1269 11.812 67.3813 13.1068 66.4115 14.0075L66.0513 12.2624H59.9554V45.0831L66.8825 43.5912L66.9102 35.6253C67.9077 36.3572 69.3763 37.3987 71.8146 37.3987C76.7744 37.3987 81.2908 33.3453 81.2908 24.4224C81.2631 16.2594 76.6913 11.812 71.8423 11.812ZM70.1798 31.2061C68.545 31.2061 67.5752 30.6149 66.9102 29.8831L66.8825 19.4401C67.6029 18.6238 68.6004 18.0609 70.1798 18.0609C72.7013 18.0609 74.4469 20.932 74.4469 24.6194C74.4469 28.3912 72.729 31.2061 70.1798 31.2061Z" fill="#194138"/>
<path fill-rule="evenodd" clip-rule="evenodd" d="M103.125 24.7038C103.125 17.4979 99.6892 11.812 93.1223 11.812C86.5277 11.812 82.5377 17.4979 82.5377 24.6475C82.5377 33.1201 87.2481 37.3987 94.009 37.3987C97.3063 37.3987 99.8 36.6387 101.684 35.569V29.9394C99.8 30.8964 97.6388 31.4875 94.8956 31.4875C92.2079 31.4875 89.825 30.5305 89.5202 27.209H103.07C103.07 27.0539 103.08 26.7014 103.091 26.2954C103.107 25.7437 103.125 25.093 103.125 24.7038ZM89.4371 22.0298C89.4371 18.849 91.349 17.5261 93.0946 17.5261C94.7848 17.5261 96.5858 18.849 96.5858 22.0298H89.4371Z" fill="#194138"/>
<path d="M57.3786 12.2905H50.4238V36.9201H57.3786V12.2905Z" fill="#194138"/>
<path d="M42.5269 12.2905L42.9702 14.3735C44.605 11.3335 47.8469 11.9527 48.7335 12.2905V18.7646C47.8746 18.455 45.1037 18.0609 43.469 20.2283V36.9202H36.5419V12.2905H42.5269Z" fill="#194138"/>
<path d="M29.116 6.18236L22.3552 7.64607L22.3275 30.1927C22.3275 34.3587 25.4031 37.4268 29.504 37.4268C31.776 37.4268 33.4385 37.0046 34.3529 36.4979V30.7839C33.4663 31.1498 29.0883 32.4446 29.0883 28.2787V18.2861H34.3529V12.2905H29.0883L29.116 6.18236Z" fill="#194138"/>
<path d="M12.7404 17.9201C11.2719 17.9201 10.3852 18.3424 10.3852 19.4401C10.3852 20.6387 11.9112 21.166 13.8043 21.8201C16.8906 22.8865 20.9526 24.29 20.9698 29.489C20.9698 34.5275 17.0075 37.4268 11.2442 37.4268C8.86125 37.4268 6.25667 36.9483 3.67979 35.8224V29.1231C6.00729 30.4179 8.94438 31.3749 11.2442 31.3749C12.7958 31.3749 13.9042 30.9527 13.9042 29.6579C13.9042 28.3302 12.25 27.7234 10.2529 26.9907C7.21158 25.875 3.375 24.4675 3.375 19.7779C3.375 14.7957 7.11563 11.812 12.7404 11.812C15.0402 11.812 17.3123 12.1779 19.6121 13.1068V19.7216C17.5063 18.5675 14.8463 17.9201 12.7404 17.9201Z" fill="#194138"/>
</svg>
