<svg width="126" height="32" viewBox="0 0 126 32" fill="none" xmlns="http://www.w3.org/2000/svg">
<path d="M75.3694 18.4802C75.3713 12.8162 79.6605 8.1061 85.2189 7.664C84.941 7.664 84.5663 7.664 84.2884 7.664C78.6393 7.99874 74.2271 12.7501 74.2271 18.4986C74.2271 24.2471 78.6393 28.9985 84.2884 29.3332C84.5663 29.3332 84.941 29.3332 85.2189 29.3332C79.6466 28.89 75.3524 24.1583 75.3694 18.4802Z" fill="#194138"/>
<path d="M87.648 7.62737C87.3579 7.62737 86.9833 7.62737 86.7053 7.62737C92.2458 8.09226 96.5093 12.796 96.5093 18.4436C96.5093 24.0911 92.2458 28.7949 86.7053 29.2597C86.9833 29.2597 87.3579 29.2597 87.648 29.2597C93.5483 29.2597 98.3314 24.4007 98.3314 18.4067C98.3314 12.4128 93.5483 7.55371 87.648 7.55371V7.62737Z" fill="#194138"/>
<path d="M34.2431 2.66681H40.4791V15.0545L46.6668 8.91588H54.1113L46.2921 16.6259L55.054 29.3328H48.1774L42.3281 20.5055L40.4791 22.3225V29.3328H34.2431V2.66681Z" fill="#194138"/>
<path d="M4.85144 2.74113H24.333L22.5444 8.46229H17.4927V29.3335H11.1721V8.46229H4.86353L4.85144 2.74113Z" fill="#194138"/>
<path d="M56.2383 2.74113H76.167L74.3784 8.46229H68.8916V29.3335H62.5831V8.46229H56.2504L56.2383 2.74113Z" fill="#194138"/>
<path d="M31.7656 11.1985H25.5175L25.5658 29.3318H31.7656V11.1985Z" fill="#194138"/>
<path d="M106.646 2.66681H100.338L100.398 29.3328H106.646V22.3225L108.435 20.5055L114.272 29.3328H121.149L112.447 16.6259L120.266 8.91588H112.822L106.646 15.0545V2.66681Z" fill="#194138"/>
<path d="M28.6476 9.12526C30.3829 9.12526 31.7898 7.69612 31.7898 5.9332C31.7898 4.17027 30.3829 2.74113 28.6476 2.74113C26.9122 2.74113 25.5054 4.17027 25.5054 5.9332C25.5054 7.69612 26.9122 9.12526 28.6476 9.12526Z" fill="#194138"/>
<path fill-rule="evenodd" clip-rule="evenodd" d="M75.2727 18.4786C75.2727 12.4847 80.0558 7.62563 85.9561 7.62563C88.7896 7.62563 91.5069 8.76907 93.5105 10.8044C95.514 12.8397 96.6396 15.6002 96.6396 18.4786C96.6396 24.4726 91.8564 29.3317 85.9561 29.3317C80.0558 29.3317 75.2727 24.4726 75.2727 18.4786ZM80.7594 18.4786C80.7594 21.3943 83.0861 23.7578 85.9561 23.7578C88.8234 23.7511 91.1462 21.3915 91.1528 18.4786C91.1528 15.563 88.8262 13.1995 85.9561 13.1995C83.0861 13.1995 80.7594 15.563 80.7594 18.4786Z" fill="#194138"/>
</svg>
