<svg width="79" height="36" viewBox="0 0 79 36" fill="none" xmlns="http://www.w3.org/2000/svg">
<path d="M2.44995 3.08314C2.44995 3.08314 5.38723 2.70314 7.34541 4.48229C8.55409 5.57993 8.90637 7.32917 8.90637 7.32917L12.9053 23.2979L16.2313 10.2284C16.5545 8.8392 17.1388 7.12111 18.062 5.95993C19.2403 4.48104 21.6321 4.3876 21.8872 4.3876C22.1423 4.3876 24.533 4.48104 25.7101 5.95993C26.6333 7.12111 27.2176 8.83796 27.5419 10.2284L30.8679 23.2979L34.8657 7.32917C34.8657 7.32917 35.2192 5.57993 36.4278 4.48229C38.386 2.70314 41.3221 3.08314 41.3221 3.08314L33.6643 32.9262C33.6643 32.9262 31.1388 33.1144 29.8742 32.4503C28.2137 31.5782 27.4253 30.9054 26.4195 26.8437C25.9111 24.7663 25.409 22.6873 24.9132 20.6067L24.7249 19.8231C24.194 17.6029 23.6644 15.3914 23.2915 13.8527L23.1093 13.1052C22.9416 12.4274 22.8262 11.9714 22.7849 11.8344C22.672 11.4593 22.5371 10.566 21.886 10.566C21.2495 10.566 21.1025 11.4606 20.9871 11.8344C20.9446 11.9714 20.8292 12.4262 20.6628 13.1052L20.4805 13.8527C20.0927 15.4516 19.708 17.0514 19.3265 18.6519L19.1395 19.4319C18.5512 21.9047 17.956 24.3757 17.3538 26.845C16.348 30.9054 15.5584 31.5794 13.8978 32.4503C12.6332 33.1144 10.1078 32.9262 10.1078 32.9262L2.44995 3.08314ZM48.6082 8.03311V9.11081H48.6106V27.1253C48.5972 30.8219 48.2486 31.6429 46.7326 32.4939C45.5543 33.1555 43.7516 32.905 43.7516 32.905V12.7252C43.7516 11.7123 44.0577 11.0482 45.1862 10.4526C45.8604 10.0963 46.4884 9.82347 47.142 9.41979C48.0348 8.8716 48.4879 8.21999 48.5875 8.0655L48.6082 8.03311ZM51.0401 3.18281C51.0401 3.18281 54.9966 2.46393 56.956 4.36642C58.0577 5.43665 59.2761 7.26065 59.5519 7.68176L59.6041 7.7615L59.6102 7.77147L63.0601 13.074C63.2265 13.3494 63.4452 13.6496 63.795 13.6496C64.1437 13.6496 64.3635 13.3506 64.5312 13.074L67.9799 7.77147L67.9859 7.7615L68.0382 7.68176C68.3139 7.26065 69.5323 5.43665 70.6353 4.36517C72.5935 2.46393 76.5499 3.18156 76.5499 3.18156L67.1757 18.0526L76.5244 32.8751C76.5244 32.8751 72.4769 33.4308 70.5175 31.5283C69.2639 30.3123 67.9799 28.3326 67.9799 28.3326L64.53 23.0313C64.3635 22.7547 64.1437 22.4544 63.795 22.4544C63.4452 22.4544 63.2265 22.7534 63.0589 23.0313L59.6102 28.3326C59.6102 28.3326 58.3967 30.3123 57.1443 31.5283C55.1849 33.4308 51.0644 32.8751 51.0644 32.8751L60.4132 18.0526L51.0401 3.18281ZM48.5985 3.0495H48.6106C48.6106 5.03048 48.4284 6.20786 47.2622 7.12235C46.7209 7.54908 46.1239 7.8959 45.4887 8.15271C44.8446 8.41043 44.2549 8.79281 43.7516 9.27901C43.7516 5.67088 44.2654 4.36393 45.6466 3.59022C46.5054 3.1093 47.9158 3.05448 48.4223 3.0495H48.5985Z" fill="#194138"/>
</svg>
