<svg width="122" height="38" viewBox="0 0 122 38" fill="none" xmlns="http://www.w3.org/2000/svg">
<path d="M39.2438 9.75859C38.8118 8.10103 37.5646 6.80622 35.9682 6.35769C33.0961 5.54443 21.5365 5.54443 21.5365 5.54443C21.5365 5.54443 9.97699 5.56908 7.10491 6.38234C5.50842 6.83086 4.26131 8.12568 3.82931 9.78323C2.96056 15.0817 2.62351 23.1552 3.85305 28.2417C4.28505 29.8993 5.53216 31.1941 7.12864 31.6426C10.0007 32.4559 21.5603 32.4559 21.5603 32.4559C21.5603 32.4559 33.1198 32.4559 35.9919 31.6426C37.5884 31.1941 38.8355 29.8993 39.2675 28.2417C40.1837 22.9358 40.4662 14.8673 39.2438 9.75859Z" fill="#194138"/>
<path d="M17.8574 24.7665L27.4469 18.9998L17.8574 13.233V24.7665Z" fill="white"/>
<path d="M114.25 13.3569C115.508 13.3569 116.458 13.6033 117.122 14.0716C117.787 14.5398 118.262 15.2791 118.546 16.2895C118.831 17.2999 118.95 18.68 118.95 20.4544V23.3378H112.85V24.225L112.945 26.6647C113.016 27.2069 113.135 27.6012 113.325 27.8476C113.514 28.0941 113.823 28.2173 114.226 28.2173C114.772 28.2173 115.152 27.9955 115.342 27.5519C115.556 27.1083 115.651 26.369 115.674 25.3586L118.831 25.5557C118.855 25.7036 118.855 25.9008 118.855 26.1472C118.855 27.6998 118.452 28.8581 117.621 29.622C116.79 30.386 115.651 30.7803 114.155 30.7803C112.351 30.7803 111.093 30.1888 110.381 29.0306C109.669 27.8723 109.289 26.0486 109.289 23.6088V20.6269C109.37 16.4374 110.08 13.3692 114.25 13.3569ZM70.3619 13.6772V26.024C70.3619 26.7633 70.4332 27.3055 70.5993 27.6258C70.9364 28.311 71.8099 28.136 72.2846 27.7984C72.5587 27.606 72.7796 27.3427 72.9255 27.0344V13.6772H76.5571V30.5092H73.7088L73.4002 28.4391H73.329C72.5457 29.9917 71.3826 30.7803 69.8398 30.7803C67.4651 30.774 66.8842 28.9979 66.7459 27.1939L66.7368 27.0665C66.7188 26.7905 66.7103 26.5149 66.7066 26.2458V13.6772H70.3619ZM89.0898 13.6772V26.024C89.0898 26.7633 89.161 27.3055 89.3272 27.6258C89.6642 28.311 90.5377 28.136 91.0125 27.7984C91.2865 27.606 91.5075 27.3427 91.6533 27.0344V13.6772H95.285V30.5092H92.4366L92.1281 28.4391H92.0569C91.2736 29.9917 90.1105 30.7803 88.5676 30.7803C86.1929 30.774 85.6121 28.9979 85.4738 27.1939L85.4647 27.0665C85.4466 26.7905 85.4382 26.5149 85.4345 26.2458V13.6772H89.0898ZM59.8231 13.3569C61.0099 13.3569 61.9831 13.6033 62.6951 14.1208C63.4072 14.6384 63.9532 15.427 64.2855 16.5113C64.6178 17.5957 64.7839 19.0497 64.7839 20.8487V23.2885C64.7839 25.0875 64.6178 26.5169 64.2855 27.6012C63.9532 28.6855 63.431 29.4742 62.6951 29.9917C61.9593 30.4846 60.9624 30.7557 59.7281 30.7557C58.4464 30.7803 57.4494 30.5092 56.7136 30.0163C55.9778 29.4988 55.4556 28.7102 55.147 27.6258C54.8385 26.5415 54.696 25.1121 54.696 23.3131V20.8733C54.696 19.0743 54.8622 17.5957 55.2182 16.5113C55.5743 15.4023 56.1202 14.6137 56.8798 14.1208C57.6393 13.628 58.6125 13.3569 59.8231 13.3569ZM100.982 6.60437V15.4763H101.005C101.338 14.8355 101.765 14.318 102.358 13.9237C102.913 13.5367 103.566 13.3307 104.234 13.3322C105.112 13.3322 105.776 13.5787 106.275 14.0469C106.773 14.5398 107.129 15.3038 107.343 16.3635C107.55 17.39 107.668 18.8098 107.675 20.6003L107.675 20.7748V23.4363C107.675 25.9254 107.367 27.7737 106.797 28.9566C106.204 30.1396 105.302 30.731 104.067 30.731C103.379 30.731 102.762 30.5585 102.192 30.2381C101.688 29.9331 101.271 29.4958 100.981 28.971L100.934 28.8827H100.863L100.483 30.4846H97.4687V6.60437H100.982ZM86.4551 7.46692V10.5228H82.8472V30.5092H79.2868V10.5228H75.6551V7.46692H86.4551ZM47.3141 7.46692L47.3161 7.4762C47.3509 7.63648 47.8309 9.85163 48.3586 12.4323L48.4003 12.6368C48.4212 12.7394 48.4422 12.8424 48.4632 12.9459L48.5053 13.1534C48.5123 13.188 48.5193 13.2227 48.5263 13.2574L48.5684 13.4661C48.5754 13.501 48.5825 13.5358 48.5895 13.5707L48.6315 13.7802L48.6928 14.0864C49.049 15.8735 49.3892 17.6659 49.5928 18.9511H49.6877C49.8828 17.7982 50.166 16.3229 50.468 14.8167L50.5472 14.4233C50.5869 14.2264 50.6269 14.0294 50.667 13.833L50.7293 13.528C51.3103 10.6905 51.8885 8.0396 51.9961 7.54811L52.003 7.51637C52.0101 7.4838 52.0138 7.46692 52.0138 7.46692H55.6455L51.4442 23.0174V30.4846H47.86V23.042H47.8363L43.6824 7.46692H47.3141ZM59.7519 15.9692C59.2534 15.9692 58.9211 16.2402 58.7075 16.8071C58.4938 17.3739 58.3989 18.2364 58.3989 19.444V24.6932C58.3989 25.9254 58.4938 26.8372 58.6837 27.3794C58.8736 27.9216 59.2297 28.1927 59.7519 28.1927C60.2503 28.1927 60.6064 27.9216 60.82 27.3794C61.0336 26.8372 61.1286 25.9254 61.1286 24.6932V19.444C61.1286 18.2364 61.0336 17.3492 60.82 16.8071C60.6064 16.2402 60.2503 15.9692 59.7519 15.9692ZM101.623 16.462C101.333 16.7393 101.127 17.0815 101.005 17.509L100.982 17.5957V27.1576C101.276 27.6751 101.694 28.0202 102.43 28.0448C102.809 28.0448 103.118 27.8969 103.355 27.6012C103.593 27.3055 103.759 26.8126 103.854 26.1226C103.945 25.4601 103.992 24.5478 103.996 23.3857L103.996 23.2392V21.0459C103.996 19.7151 103.949 18.7047 103.877 17.99C103.783 17.2753 103.664 16.7578 103.45 16.462C103.037 15.8459 102.145 15.8533 101.623 16.462ZM114.179 15.8952C113.775 15.9199 113.491 16.0431 113.325 16.2649C113.135 16.5113 113.016 16.881 112.945 17.4232C112.875 17.9545 112.851 19.8112 112.85 19.8853L112.85 21.0951H115.508L115.508 20.0282L115.508 20.0487C115.507 20.4217 115.499 19.8322 115.483 19.1085L115.481 19.0113C115.466 18.3752 115.444 17.6661 115.413 17.4232C115.342 16.8563 115.223 16.462 115.034 16.2402C114.844 16.0184 114.559 15.8952 114.179 15.8952Z" fill="#194138"/>
</svg>
